# xmcd
#
# Track frame offsets:
#	150
#	18637
#	37350
#	54015
#	70300
#	89250
#	112350
#	133087
#	156262
#	174300
#	191575
#	216745
#	235675
#	256162
#	277345
#	297992
#	311500
#
# Disc length: 4421 seconds
#
# Revision: 1
# Processed by: cddbd v1.5PL3 Copyright (c) Steve Scherf et al.
# Submitted via: CDex 1.50Beta5
#
DISCID=0c114311
DTITLE=Various Artist - Urban - CBS Love Songs Collection
DYEAR=1988
DGENRE=Pop -> General Pop
TTITLE0=Gregory Abbott/Shake You Down
TTITLE1=Regina Belle/Show Me The Way
TTITLE2=Emotions/Best Of My Love
TTITLE3=Rainy Davis/Lowdown So And So
TTITLE4=Johnny Kemp/One Thing Led To Another
TTITLE5=Cheryl Lynn/Got To Be Real
TTITLE6=Champaign/How 'Bout Us
TTITLE7=Lisa Lisa and Cult Jam/Lost In Emotion
TTITLE8=Marvin Gaye/Sexual Healing
TTITLE9=Rebbie Jackson/You Don't Know What You're Missing
TTITLE10=Al Johnson/I've Got My Second Wind
TTITLE11=Process and The Doo Rags/I Promise To Remember
TTITLE12=The Jones Girls/You Gonna Make Me Love Somebody Else
TTITLE13=The Manhattans/Shining Star
TTITLE14=Maurice White/I Need You
TTITLE15=The Three Degrees/When Will I See You Again
TTITLE16=Earth Wind and Fire/After The Love Is Gone
EXTD=
EXTT0=
EXTT1=
EXTT2=
EXTT3=
EXTT4=
EXTT5=
EXTT6=
EXTT7=
EXTT8=
EXTT9=
EXTT10=
EXTT11=
EXTT12=
EXTT13=
EXTT14=
EXTT15=
EXTT16=
PLAYORDER=
